<?xml version="1.0" standalone="no"?><!DOCTYPE svg PUBLIC "-//W3C//DTD SVG 1.1//EN" "http://www.w3.org/Graphics/SVG/1.1/DTD/svg11.dtd"><svg t="1566777429563" class="icon" viewBox="0 0 1024 1024" version="1.1" xmlns="http://www.w3.org/2000/svg" p-id="3353" xmlns:xlink="http://www.w3.org/1999/xlink" width="200" height="200"><defs><style type="text/css"></style></defs><path d="M142.818743 146.285714l738.366415 0 0 84.84864L142.818743 231.134354 142.818743 146.285714 142.818743 146.285714zM817.009615 651.353722 817.009615 319.647939 206.990385 319.647939l0 331.706758L817.009615 651.354697 817.009615 651.353722zM295.46691 404.44099l433.988754 0 0 162.165516L295.46691 566.606507 295.46691 404.44099 295.46691 404.44099zM685.044297 842.54915c26.54403-41.450545 51.592046-89.522956 74.803688-144.090453l-88.732038-32.994255c-23.070232 64.659261-49.957547 123.78112-80.521509 177.084709L436.163535 842.54915c-25.61853-69.08099-54.487528-128.159939-86.890789-177.084709l-81.611825 32.994255c33.668145 51.516952 60.78464 99.47331 81.611825 144.090453L121.904762 842.54915l0 83.928015 780.190476 0 0-83.928015L685.044297 842.54915 685.044297 842.54915zM685.044297 842.54915" p-id="3354"></path></svg>