<svg xmlns="http://www.w3.org/2000/svg" xmlns:xlink="http://www.w3.org/1999/xlink" viewBox="0 0 770 770"><defs><style>.cls-1{fill:url(#未命名的渐变_14);}.cls-2{fill:url(#未命名的渐变_14-2);}.cls-3{fill:url(#未命名的渐变_14-3);}.cls-4{fill:url(#未命名的渐变_5);}.cls-5{fill:red;}.cls-6{fill:#082e45;}.cls-7{fill:aqua;}.cls-10,.cls-8{fill:none;}.cls-9{fill:url(#未命名的渐变_3);}.cls-10{stroke:#c1272d;stroke-miterlimit:10;}.cls-11{font-size:57.77px;fill:#1b1464;font-family:HarmonyOS_Sans_Black, HarmonyOS Sans;letter-spacing:-0.01em;}.cls-12{letter-spacing:-0.04em;}.cls-13{letter-spacing:-0.01em;}.cls-14{letter-spacing:-0.01em;}.cls-15{letter-spacing:-0.04em;}</style><linearGradient id="未命名的渐变_14" x1="677.89" y1="213.3" x2="677.88" y2="213.26" gradientUnits="userSpaceOnUse"><stop offset="0.01" stop-color="#8cc63f"/><stop offset="0.07" stop-color="#83c444"/><stop offset="0.17" stop-color="#69c050"/><stop offset="0.29" stop-color="#40ba64"/><stop offset="0.37" stop-color="#22b573"/><stop offset="0.58" stop-color="#0bad8f"/><stop offset="0.67" stop-color="#00a99d"/><stop offset="0.81" stop-color="#0085b4"/><stop offset="0.87" stop-color="#0075be"/><stop offset="0.99" stop-color="#005b97"/></linearGradient><linearGradient id="未命名的渐变_14-2" x1="580.25" y1="414.32" x2="580.24" y2="414.3" xlink:href="#未命名的渐变_14"/><linearGradient id="未命名的渐变_14-3" x1="583.77" y1="412.55" x2="583.73" y2="412.48" xlink:href="#未命名的渐变_14"/><linearGradient id="未命名的渐变_5" x1="42.89" y1="381.58" x2="753.12" y2="388.68" gradientUnits="userSpaceOnUse"><stop offset="0.18" stop-color="#22b573"/><stop offset="0.29" stop-color="#22b479"/><stop offset="0.44" stop-color="#23b38a"/><stop offset="0.61" stop-color="#25b0a6"/><stop offset="0.79" stop-color="#28adcd"/><stop offset="0.88" stop-color="#29abe2"/></linearGradient><linearGradient id="未命名的渐变_3" x1="250.54" y1="642.95" x2="801.99" y2="648.46" gradientUnits="userSpaceOnUse"><stop offset="0.28" stop-color="#0075be"/><stop offset="0.78" stop-color="#76c747"/><stop offset="0.8" stop-color="#7ac943"/></linearGradient></defs><g id="图层_1" data-name="图层 1"><polygon class="cls-1" points="677.91 213.27 677.91 213.31 677.85 213.27 677.91 213.27"/><polygon class="cls-2" points="580.25 414.3 580.25 414.32 580.24 414.31 580.25 414.3"/><polygon class="cls-3" points="583.76 412.45 583.76 412.57 583.7 412.49 583.76 412.45"/></g><g id="图层_2" data-name="图层 2"><rect class="cls-4" width="770" height="770"/><polygon class="cls-5" points="583.76 412.45 583.76 412.57 583.7 412.49 583.76 412.45"/><polygon class="cls-5" points="583.76 412.45 583.76 412.57 583.7 412.49 583.76 412.45"/><polygon class="cls-5" points="583.76 412.45 583.76 412.57 583.7 412.49 583.76 412.45"/><path class="cls-6" d="M705.56,599.63v.14h31.6v-.14Z" transform="translate(-131.17 -164)"/><path class="cls-6" d="M705.56,592.49v7.14h31.6v-7.14Z" transform="translate(-131.17 -164)"/><polygon class="cls-6" points="677.91 213.27 677.91 213.31 677.85 213.27 677.91 213.27"/><polygon class="cls-6" points="580.25 414.3 580.25 414.32 580.24 414.31 580.25 414.3"/><polygon class="cls-6" points="583.76 412.45 583.76 412.57 583.7 412.49 583.76 412.45"/><polygon class="cls-6" points="615.3 357.4 614.71 357.4 614.71 356.8 615.3 357.4"/><rect class="cls-6" x="514.71" y="428.49" width="60.85" height="6.69"/><polygon class="cls-7" points="614.71 357.4 614.42 357.69 614.13 357.4 614.71 357.4"/><polyline class="cls-8" points="294.06 308.56 233.2 308.56 214.48 308.56"/><polyline class="cls-8" points="294.06 339.53 233.2 339.53 214.48 339.53"/><polygon class="cls-7" points="614.13 357.4 613.54 357.4 613.54 356.8 614.13 357.4"/><polygon class="cls-5" points="580.25 414.3 580.25 414.32 580.24 414.31 580.25 414.3"/><polygon points="677.91 213.27 677.91 213.31 677.85 213.27 677.91 213.27"/><path class="cls-6" d="M355.88,597l-2,16.52a10.53,10.53,0,0,1-11.72,9.19l-34.5-4.18a10.53,10.53,0,0,1-9.19-11.73l1.19-9.8Z" transform="translate(-131.17 -164)"/><path class="cls-6" d="M509,384V477l-66.59.1V384a10,10,0,0,1,10-10H499A10,10,0,0,1,509,384Z" transform="translate(-131.17 -164)"/><path class="cls-6" d="M509,498V591a10,10,0,0,1-10,10H452.43a10,10,0,0,1-10-10v-93Z" transform="translate(-131.17 -164)"/><path class="cls-6" d="M664.17,474,640.79,597.49l-3.87,20.42a10.77,10.77,0,0,1-12.57,8.57l-33.71-6.39a10.76,10.76,0,0,1-8.57-12.57l1.9-10,18.88-99.67,36.15-.05,0-21-22.4,0,29.75-40.25Z" transform="translate(-131.17 -164)"/><path class="cls-6" d="M679.66,392.24l-7.27,38.39-12-25.22-10.73,5.11L639,402.68l-24.42,33,10.2-53.87a10.76,10.76,0,0,1,12.57-8.56l33.71,6.38A10.76,10.76,0,0,1,679.66,392.24Z" transform="translate(-131.17 -164)"/><path class="cls-6" d="M779.23,383.25v211.5a10.22,10.22,0,0,1-6.24,9.43,10.12,10.12,0,0,1-4,.82H733.67a10.26,10.26,0,0,1-9.89-7.51H751.9L723.41,537.7V383.25A10.25,10.25,0,0,1,733.67,373H769A10.25,10.25,0,0,1,779.23,383.25Z" transform="translate(-131.17 -164)"/><path class="cls-6" d="M380.16,389.09,370,472.56l-.56,4.6-2.55,21-.65,5.36-11.4,94H298.66l26.08-215.12a10.53,10.53,0,0,1,11.73-9.19l34.5,4.18A10.54,10.54,0,0,1,380.16,389.09Z" transform="translate(-131.17 -164)"/><polygon class="cls-6" points="620.73 433.49 591.84 433.49 533 310.01 515.15 272.55 485.4 312.8 507.8 312.77 507.83 333.77 471.68 333.82 377.83 333.96 311.24 334.06 235.76 334.17 238.31 313.16 311.24 313.06 377.83 312.96 453.04 312.85 483.44 271.72 507.86 238.68 518.47 246.52 529.2 241.41 541.22 266.63 592.24 373.7 620.73 433.49"/><polygon class="cls-6" points="527.34 442.36 503.8 453.58 491.84 428.49 520.73 428.49 523.92 435.18 524.31 436 527.34 442.36"/><path class="cls-9" d="M817.67,603.75v83.71c0,11.74-7.46,21.26-16.67,21.26H231.33c-9.21,0-16.66-9.52-16.66-21.26V603.75c0-11.75,7.45-21.26,16.66-21.26H801C810.21,582.49,817.67,592,817.67,603.75Z" transform="translate(-131.17 -164)"/><line class="cls-10" x1="637.81" y1="209" x2="602.5" y2="209"/><text class="cls-11" transform="translate(67.76 666.1) scale(0.94 1)">Harmo<tspan class="cls-12" x="188.55" y="0">n</tspan><tspan x="222" y="0">y Human N</tspan><tspan class="cls-13" x="528.28" y="0">a</tspan><tspan class="cls-14" x="560.63" y="0">tu</tspan><tspan class="cls-15" x="621.11" y="0">r</tspan><tspan class="cls-14" x="644.91" y="0">e</tspan></text></g></svg>