<?xml version="1.0" encoding="UTF-8"?>
<svg width="148px" height="78px" viewBox="0 0 148 78" version="1.1" xmlns="http://www.w3.org/2000/svg">
    <title>myssl</title>
    <g id="page1" stroke="none" stroke-width="1" fill="none" fill-rule="evenodd">
        <g id="myssl">
            <path d="M123.098045,73.3566949 L28.1646339,73.3566949 C14.8400089,73.3566949 4,62.5097373 4,49.1776864 C4,35.8469576 14.8400089,25 28.1646339,25 L123.098045,25 C136.424982,25 147.266973,35.8469576 147.266973,49.1776864 C147.266973,62.5097373 136.424982,73.3566949 123.098045,73.3566949" id="Fill-1" fill="#D2D2D3"></path>
            <path d="M28.2654107,27 C15.9866964,27 6,36.9949068 6,49.2789153 C6,61.5665593 15.9866964,71.5601441 28.2654107,71.5601441 L123.198821,71.5601441 C135.477536,71.5601441 145.468857,61.5665593 145.468857,49.2789153 C145.468857,36.9949068 135.477536,27 123.198821,27 L28.2654107,27 Z" id="Fill-3" fill="#FFFFFF"></path>
            <polygon id="Fill-5" fill="#231815" points="74.6486964 32 71.2912768 32 67.8839732 42.979161 67.8753839 42.9543729 67.867125 42.979161 64.4598214 32 61.1024018 32 60 46.7892627 62.3551161 46.7892627 63.1066786 34.5568136 66.7145089 46.7892627 67.8753839 46.7892627 69.0362589 46.7892627 72.6444196 34.5568136 73.3959821 46.7892627 75.7510982 46.7892627"></polygon>
            <path d="M77,36 L79.9064821,36 L82.6458036,43.7203475 L84.9507054,36 L87.7904554,36 L84.3160893,45.2912542 C84.3160893,45.2912542 83.0465268,50.5384068 78.4697589,51.6413136 L77.9352411,49.3019746 C77.9352411,49.3019746 82.0108571,47.9984492 80.9084554,45.4584915 C79.8060536,42.9182034 77,36 77,36" id="Fill-7" fill="#231815"></path>
            <path d="M96.7776071,47.2057034 C94.2764732,47.2057034 92.5311964,46.7277881 91.5903393,45.7865 C90.6980446,44.8937966 90.1638571,43.7551949 90,42.3991186 L93.9814643,42.1499153 C94.0934554,42.8079576 94.2969554,43.3278475 94.5870089,43.698678 C95.1169018,44.3729153 95.878375,44.7143305 96.8499554,44.7143305 C97.5770714,44.7143305 98.1518929,44.5358559 98.5582321,44.1832034 C98.9751429,43.8216271 99.1859107,43.3919661 99.1859107,42.9057881 C99.1859107,42.4420847 98.9843929,42.0249831 98.5873036,41.6670424 C98.2077232,41.3252966 97.386125,41.0185847 96.0749375,40.7293898 C94.07,40.2785763 92.6260089,39.6770508 91.78525,38.941339 C90.9504375,38.2171949 90.5447589,37.3195339 90.5447589,36.1961356 C90.5447589,35.4683559 90.7591607,34.769661 91.1823482,34.1205424 C91.6052054,33.4714237 92.2550179,32.9512034 93.1139464,32.5744237 C93.9864196,32.1933475 95.2090714,32 96.7465536,32 C98.6236429,32 100.068295,32.3486864 101.039214,33.0368051 C101.937455,33.6740254 102.501705,34.6867034 102.717098,36.0497203 L98.7772589,36.2807458 C98.6361964,35.6491441 98.3738929,35.1712288 97.9949732,34.8579068 C97.5754196,34.5112034 96.9986161,34.3357034 96.2810804,34.3357034 C95.6798304,34.3357034 95.2120446,34.4715424 94.8919286,34.7399153 C94.5585982,35.0191949 94.3901161,35.3665593 94.3901161,35.7717627 C94.3901161,36.0880593 94.5341518,36.3706441 94.8185893,36.6112542 C95.0719732,36.8416186 95.6084732,37.0382712 96.4997768,37.2240169 C98.5175982,37.6589661 99.9794286,38.1025085 100.842321,38.5427458 C101.683411,38.9717458 102.300848,39.506839 102.678777,40.1331525 C103.057036,40.7611186 103.248643,41.4743559 103.248643,42.2533644 C103.248643,43.1735 102.990304,44.0341441 102.482214,44.810178 C101.972143,45.5878644 101.249652,46.1860847 100.33225,46.5893051 C99.4013036,46.9978136 98.2057411,47.2057034 96.7776071,47.2057034" id="Fill-9" fill="#EC9F1E"></path>
            <path d="M111.777607,47.2057034 C109.276473,47.2057034 107.531196,46.7277881 106.589679,45.7865 C105.698045,44.8937966 105.163857,43.7551949 105,42.3991186 L108.981464,42.1499153 C109.093455,42.8079576 109.296955,43.3278475 109.587009,43.698678 C110.116571,44.3729153 110.877384,44.7143305 111.849955,44.7143305 C112.577402,44.7143305 113.151893,44.5358559 113.558232,44.1832034 C113.974482,43.8222881 114.185911,43.3919661 114.185911,42.9057881 C114.185911,42.4420847 113.984393,42.0249831 113.587304,41.6670424 C113.207393,41.3252966 112.385795,41.0179237 111.074938,40.7293898 C109.07,40.2785763 107.626339,39.6770508 106.78525,38.941339 C105.950107,38.2175254 105.544098,37.3195339 105.544098,36.1961356 C105.544098,35.4690169 105.759161,34.770322 106.182348,34.1205424 C106.605205,33.4707627 107.255018,32.9508729 108.113946,32.5744237 C108.98642,32.1933475 110.209071,32 111.746554,32 C113.623643,32 115.068295,32.3486864 116.039214,33.0368051 C116.936795,33.6740254 117.501045,34.6867034 117.717098,36.0497203 L113.777259,36.2807458 C113.636196,35.6491441 113.373893,35.1712288 112.994973,34.8579068 C112.57542,34.5112034 111.998616,34.3357034 111.28108,34.3357034 C110.67983,34.3357034 110.212045,34.4715424 109.891929,34.7399153 C109.558598,35.0185339 109.390116,35.3658983 109.390116,35.7717627 C109.390116,36.0880593 109.534152,36.3706441 109.818589,36.6112542 C110.071973,36.8416186 110.608473,37.0382712 111.499777,37.2240169 C113.517598,37.6589661 114.978768,38.102839 115.841661,38.5427458 C116.68275,38.9717458 117.300518,39.506839 117.678116,40.1331525 C118.056375,40.7607881 118.248643,41.4743559 118.248643,42.2533644 C118.248643,43.1735 117.990304,44.0341441 117.481554,44.810178 C116.972143,45.5878644 116.249652,46.1860847 115.33192,46.5893051 C114.401304,46.9978136 113.205741,47.2057034 111.777607,47.2057034" id="Fill-11" fill="#EC9F1E"></path>
            <polygon id="Fill-13" fill="#EC9F1E" points="121 46.6877966 121 32 125.197848 32 125.197848 43.4405508 132.514268 43.4405508 132.514268 46.6877966"></polygon>
            <path d="M27.7067232,66.8139407 C17.9205536,66.8139407 9.98735714,58.8609153 9.98735714,49.0504322 C9.98735714,39.2396186 17.9205536,31.2865932 27.7067232,31.2865932 C37.4928929,31.2865932 45.4264196,39.2396186 45.4264196,49.0504322 C45.4264196,58.8609153 37.4928929,66.8139407 27.7067232,66.8139407 L27.7067232,66.8139407 Z M18.3126875,15.5679407 C18.3126875,10.3703644 22.5392768,6.14183898 27.7334821,6.14183898 C32.9286786,6.14183898 37.1552679,10.3703644 37.1552679,15.5679407 L37.1552679,24.6004068 C35.3980982,24.491339 33.8216339,23.7225763 32.6990804,22.5063051 C32.6901607,22.5046525 32.6815714,22.502339 32.6726518,22.5003559 C31.5342411,21.0633051 29.7777321,20.1382119 27.8025268,20.1382119 C25.8857946,20.1382119 24.1781786,21.0114153 23.0381161,22.3760847 C21.9991429,23.9734322 20.2921875,25.0941864 18.3126875,25.3410763 L18.3126875,15.5679407 Z M54.4137857,52.6083559 C53.7567054,51.5798136 53.3711786,50.3608983 53.3711786,49.0497712 C53.3711786,47.7386441 53.7567054,46.5197288 54.4134554,45.4911864 L54.4134554,45.4895339 C55.079125,44.4993305 55.4682857,43.3075169 55.4682857,42.0241525 C55.4682857,39.5040254 53.9658214,37.3415085 51.8115625,36.3655169 C48.9979107,35.6268305 46.916,33.0885254 46.8766875,30.0511525 C46.7237321,27.7339576 45.2949375,25.7809831 43.2952857,24.8459746 L43.2952857,15.5679407 C43.2952857,6.98364407 36.3141786,0 27.7334821,0 C19.1527857,0 12.1726696,6.98364407 12.1726696,15.5679407 L12.1726696,25.1616102 C9.66030357,25.9105424 7.80534821,28.1811356 7.72936607,30.9210508 C7.72804464,30.9227034 7.72672321,30.9246864 7.72507143,30.926339 C7.53148214,33.3697881 6.01514286,35.4354661 3.89028571,36.4131102 C3.88764286,36.4180678 3.88466964,36.4226949 3.88202679,36.4276525 C1.60652679,37.3510932 0,39.5807034 0,42.1884153 C0,43.4288136 0.367026786,44.5809661 0.992392857,45.5510085 C0.992392857,45.5510085 0.9920625,45.5529915 0.991732143,45.5539831 C1.64583929,46.5812034 2.02971429,47.7971441 2.02971429,49.1052966 C2.02971429,50.4878136 1.60553571,51.7705169 0.881723214,52.8327712 C0.330026786,53.760839 0,54.8359831 0,55.9940847 C0,58.6212966 1.63130357,60.8631356 3.9335625,61.7736864 C3.93455357,61.7756695 3.93554464,61.777322 3.93686607,61.7793051 C6.42049107,62.6766356 8.21003571,65.0120085 8.301875,67.7839831 C8.3065,67.7886102 8.31046429,67.7935678 8.31475893,67.7981949 C8.51297321,71.0537034 11.2070357,73.6343136 14.5106071,73.6343136 C14.8260982,73.6343136 15.133,73.6022542 15.4352768,73.554661 C16.2093036,73.2373729 17.0553482,73.0595593 17.9436786,73.0595593 C20.0966161,73.0595593 22.0037679,74.0920678 23.2132054,75.6841271 C23.2132054,75.6841271 23.2191518,75.6857797 23.2224554,75.6864407 C24.3625179,77.0435085 26.0701339,77.9074576 27.9805893,77.9074576 C29.7361071,77.9074576 31.3155446,77.1740593 32.4453661,76.0027373 C33.6478661,74.3349915 35.6015982,73.2453051 37.8143304,73.2453051 C38.3376161,73.2453051 38.8443839,73.3123983 39.3326518,73.4270847 C39.3395893,73.4237797 39.3468571,73.4211356 39.354125,73.4178305 C39.8665089,73.554661 40.4023482,73.6343136 40.9576786,73.6343136 C44.2817321,73.6343136 46.9883482,71.0213136 47.1565,67.7373814 C47.1604643,67.7334153 47.1640982,67.7287881 47.1680625,67.7244915 C47.3154018,65.0605932 49.0302857,62.8207373 51.4095179,61.9101864 C51.4115,61.9065508 51.4138125,61.9032458 51.4157946,61.8996102 C53.7801607,61.0197966 55.4682857,58.7482119 55.4682857,56.0763814 C55.4682857,54.7930169 55.079125,53.6012034 54.4134554,52.611 L54.4137857,52.6083559 Z" id="Fill-15" fill="#182D5D"></path>
            <path d="M41.8504196,49.4610678 C41.8504196,57.4478051 35.3919375,63.9221356 27.425375,63.9221356 C19.4584821,63.9221356 13,57.4478051 13,49.4610678 C13,41.4743305 19.4584821,35 27.425375,35 C35.3919375,35 41.8504196,41.4743305 41.8504196,49.4610678" id="Fill-17" fill="#EC9F1E"></path>
            <path d="M25.6350541,56.5507111 C25.2016256,56.5507111 24.7685273,56.390745 24.430572,56.0691603 L17.5429559,49.5178213 C16.8439202,48.8521772 16.8161702,47.7459654 17.4811791,47.0459484 C18.1461881,46.346262 19.2525541,46.3178382 19.9519202,46.9838128 L25.6178756,52.373084 L34.6871702,43.4989315 C35.377947,42.8227111 36.483322,42.8359315 37.158572,43.5260332 C37.8331613,44.2164654 37.8212684,45.3236688 37.1311523,45.9985671 L26.8570452,56.0519738 C26.5180988,56.3844654 26.0764113,56.5507111 25.6350541,56.5507111" id="Fill-19" fill="#FFFFFF"></path>
            <path d="M64.2001696,62.9410085 C64.9593304,63.1515424 65.7419464,63.4199153 66.536125,63.7239831 C67.0732857,63.116178 67.5172857,62.3801356 67.8674643,61.5389915 L65.0409286,61.5389915 C64.7373304,62.0648305 64.4571875,62.5321695 64.2001696,62.9410085 L64.2001696,62.9410085 Z M71.2546161,59.8329068 L70.0164375,59.8329068 L70.0164375,58.3138898 L62.4132679,58.3138898 L62.4132679,59.821339 L61.1750893,59.821339 L61.1750893,57.1336441 L65.4964911,57.1336441 C65.3564196,56.8061102 65.1928929,56.5142712 65.0178036,56.2336695 L66.3957232,56 C66.5595804,56.3387712 66.7112143,56.7129068 66.8747411,57.1336441 L71.2546161,57.1336441 L71.2546161,59.8329068 Z M64.24675,60.3703136 C64.5738036,59.762839 64.8774018,59.1666017 65.1697679,58.5822627 L66.4307411,58.9679661 L65.6950357,60.3703136 L71.4297054,60.3703136 L71.4297054,61.5389915 L69.2106964,61.5389915 C68.7551339,62.648839 68.2645536,63.5369153 67.7389554,64.2147881 C68.8720804,64.6940254 70.0398929,65.2545678 71.2430536,65.9089746 L70.4138571,66.9837881 C69.2341518,66.2827797 68.0544464,65.6634068 66.8631786,65.126 C65.5434018,66.2712119 63.8265357,66.8671186 61.71225,66.9256186 L61,65.7923051 C62.8919554,65.7923051 64.4221696,65.3834661 65.5899821,64.5651271 C64.5622411,64.132822 63.5226071,63.7471186 62.4833036,63.4199153 C62.8803929,62.7889746 63.2540268,62.1699322 63.6045357,61.5389915 L61.0350179,61.5389915 L61.0350179,60.3703136 L64.24675,60.3703136 Z" id="Fill-21" fill="#B4B4B5"></path>
            <path d="M88.5727679,59.6223729 C87.4165179,58.8978983 86.4003393,58.0564237 85.5126696,57.1098475 C84.6600179,58.0329576 83.6322768,58.8744322 82.4406786,59.6223729 L88.5727679,59.6223729 Z M85.9447768,56 C87.4049554,57.4955508 89.0868036,58.6757966 90.9903214,59.5404068 L90.383125,60.6271186 C89.8225089,60.3584153 89.2850179,60.0662458 88.7713125,59.7509407 L88.7713125,60.8022881 L86.1317589,60.8022881 L86.1317589,62.4386356 L89.3785089,62.4386356 L89.3785089,63.6185508 L86.1317589,63.6185508 L86.1317589,65.3477712 L90.4415982,65.3477712 L90.4415982,66.5399153 L80.5956339,66.5399153 L80.5956339,65.3477712 L84.8935804,65.3477712 L84.8935804,63.6185508 L81.6349375,63.6185508 L81.6349375,62.4386356 L84.8935804,62.4386356 L84.8935804,60.8022881 L82.2540268,60.8022881 L82.2540268,59.7393729 C81.7284286,60.0662458 81.179375,60.3703136 80.5956339,60.6502542 L80,59.5638729 C82.0320268,58.6057288 83.7257679,57.4254831 85.0805625,56 L85.9447768,56 Z" id="Fill-23" fill="#B4B4B5"></path>
            <path d="M108.918991,56.0118983 C108.918991,57.0282119 108.883973,57.9747881 108.813938,58.8397288 C109.397679,61.6787966 110.448875,63.9460847 111.943741,65.6402712 L111.056402,66.6569153 C109.946732,65.2079661 109.082518,63.4552797 108.451866,61.4100932 C108.428411,61.5151949 108.416518,61.6206271 108.393393,61.714161 C107.984741,63.7124153 106.991688,65.3712373 105.426786,66.6916186 L104.597589,65.6753051 C105.928929,64.5300932 106.793143,63.1277458 107.190562,61.4689237 C107.505723,60.0665763 107.66925,58.2553898 107.680813,56.0118983 L108.918991,56.0118983 Z M104.515661,57.7060847 L103.674902,58.5591271 C103.230902,58.0217203 102.588688,57.4492797 101.759161,56.8414746 L102.623375,56 C103.359411,56.5724407 103.990062,57.1452119 104.515661,57.7060847 L104.515661,57.7060847 Z M103.779955,59.3771356 L103.779955,64.1443898 C104.118571,63.8641186 104.480643,63.5369153 104.854277,63.174678 L105.181661,64.4249915 C104.4225,65.126 103.616429,65.7453729 102.752214,66.3062458 L102.285089,65.2195339 C102.495196,65.0559322 102.60025,64.8338305 102.60025,64.5770254 L102.60025,60.5454831 L101,60.5454831 L101,59.3771356 L103.779955,59.3771356 Z" id="Fill-25" fill="#B4B4B5"></path>
            <path d="M124.971223,57.5305847 L124.971223,56.3391017 L131.62858,56.3391017 L131.62858,57.5305847 L129.374554,57.5305847 L129.374554,60.4165847 L131.465054,60.4165847 L131.465054,61.5502288 L129.374554,61.5502288 L129.374554,65.1494661 L131.874036,65.1494661 L131.874036,66.3409492 L124.620714,66.3409492 L124.620714,65.1494661 L125.683473,65.1494661 L125.683473,59.2251017 L126.875071,59.2251017 L126.875071,65.1494661 L128.136375,65.1494661 L128.136375,57.5305847 L124.971223,57.5305847 Z M124.515661,57.6941864 L123.686464,58.5472288 C123.242795,57.9979237 122.623705,57.4135847 121.817634,56.8064407 L122.670286,56 C123.394759,56.5727712 124.001625,57.1333136 124.515661,57.6941864 L124.515661,57.6941864 Z M123.744938,59.3652373 L123.744938,64.074322 C124.048536,63.7937203 124.363696,63.5015508 124.69075,63.1743475 L125.006241,64.4600254 C124.293661,65.1378983 123.5345,65.7569407 122.740321,66.3062458 L122.273196,65.1960678 C122.483634,65.0324661 122.588688,64.8222627 122.588688,64.5651271 L122.588688,60.5335847 L121,60.5335847 L121,59.3652373 L123.744938,59.3652373 Z" id="Fill-27" fill="#B4B4B5"></path>
        </g>
    </g>
</svg>